<svg xmlns="http://www.w3.org/2000/svg" width="240" height="130"><defs><clipPath id="a" clipPathUnits="userSpaceOnUse"><path d="M-479.578-329.849h841.89v595.276h-841.89z"/></clipPath><clipPath id="b" clipPathUnits="userSpaceOnUse"><path d="M-479.578-331.758h841.89v595.276h-841.89z"/></clipPath><clipPath id="c" clipPathUnits="userSpaceOnUse"><path d="M-487.594-375.361h841.89v595.276h-841.89z"/></clipPath><clipPath id="d" clipPathUnits="userSpaceOnUse"><path d="M-519.58-379.175h841.89v595.276h-841.89z"/></clipPath><clipPath id="e" clipPathUnits="userSpaceOnUse"><path d="M-521.221-377.69h841.89v595.276h-841.89z"/></clipPath><clipPath id="f" clipPathUnits="userSpaceOnUse"><path d="M-532.242-373.822h841.89v595.276h-841.89z"/></clipPath><clipPath id="g" clipPathUnits="userSpaceOnUse"><path d="M-564.678-336.04h841.89v595.275h-841.89z"/></clipPath><clipPath id="h" clipPathUnits="userSpaceOnUse"><path d="M-479.578-336.04h841.89v595.275h-841.89z"/></clipPath><clipPath id="i" clipPathUnits="userSpaceOnUse"><path d="M-515.48-351.719h841.89v595.276h-841.89z"/></clipPath></defs><path fill="#b3b3b3" d="M30.755 126.78C13.799 126.78.002 113.671.002 97.556V32.445c0-16.115 13.797-29.226 30.753-29.226h178.493c16.958 0 30.753 13.111 30.753 29.226v65.111c0 16.115-13.795 29.224-30.753 29.224z" clip-path="url(#a)"/><path fill="#fff" d="M30.755 122.775c-14.634 0-26.538-11.314-26.538-25.22V32.444c0-13.907 11.904-25.22 26.538-25.22h178.493c14.634 0 26.537 11.313 26.537 25.22v65.111c0 13.906-11.903 25.22-26.537 25.22z" clip-path="url(#b)"/><path fill="#1d1d1b" d="M26.661 25.441v8.973h-3.813v-15.69h2.977l7.697 9.215v-9.215h3.813v15.69h-3.067z"/><path fill="#1d1d1b" d="M47.568 31.318c.65 0 1.202-.128 1.65-.386a3.15 3.15 0 0 0 1.093-1.028c.28-.426.479-.916.594-1.47a8.084 8.084 0 0 0 .174-1.69v-8.021h3.815v8.02c0 1.093-.144 2.108-.432 3.05a6.863 6.863 0 0 1-1.325 2.477 6.158 6.158 0 0 1-2.278 1.668c-.923.404-2.02.608-3.291.608-1.317 0-2.442-.214-3.373-.642a6.244 6.244 0 0 1-2.267-1.711 6.956 6.956 0 0 1-1.28-2.488 10.666 10.666 0 0 1-.404-2.962v-8.02h3.813v8.02c0 .604.06 1.18.186 1.724a4.45 4.45 0 0 0 .604 1.46c.28.428.64.766 1.08 1.015.443.252.99.376 1.64.376" clip-path="url(#c)"/><path fill="#1d1d1b" d="M70.403 21.904h-5.022v12.512h-3.813V21.904H56.52v-3.18h13.882zM72.288 34.414v-15.69h7.441c.777 0 1.492.154 2.152.463a5.663 5.663 0 0 1 2.835 2.918 4.81 4.81 0 0 1 .409 1.922 5.274 5.274 0 0 1-.72 2.674 4.833 4.833 0 0 1-.85 1.073 5.084 5.084 0 0 1-1.13.808l3.792 5.832h-4.303l-3.324-5.06h-2.489v5.06zm3.813-8.22h3.487c.452 0 .838-.203 1.165-.61.325-.403.488-.924.488-1.557 0-.647-.186-1.163-.559-1.545-.372-.384-.774-.578-1.209-.578h-3.372zM88.102 18.722h3.813v15.69h-3.813zM94.753 26.743h7.163v3.187h-7.163z"/><path fill="#1d1d1b" d="M114.66 23.32c-.063-.058-.233-.17-.512-.33a10.498 10.498 0 0 0-2.418-.974 5.768 5.768 0 0 0-1.49-.197c-.65 0-1.149.109-1.5.331a1.076 1.076 0 0 0-.521.971c0 .265.077.487.232.663a2.045 2.045 0 0 0 .663.476 6.2 6.2 0 0 0 1.07.386c.426.118.919.252 1.477.399a20.272 20.272 0 0 1 2.139.673 6.037 6.037 0 0 1 1.628.906c.448.363.794.8 1.034 1.315.24.516.36 1.135.36 1.857 0 .885-.174 1.631-.522 2.242a4.285 4.285 0 0 1-1.384 1.48 5.992 5.992 0 0 1-1.989.819 10.47 10.47 0 0 1-2.313.255 13.7 13.7 0 0 1-3.698-.522 15.964 15.964 0 0 1-1.768-.606 9.67 9.67 0 0 1-1.582-.818l1.674-3.16c.078.075.288.215.63.42.34.206.759.414 1.256.62.495.205 1.053.39 1.674.551a7.33 7.33 0 0 0 1.883.241c1.349 0 2.024-.388 2.024-1.17a.96.96 0 0 0-.302-.728c-.203-.193-.482-.365-.839-.52a9.745 9.745 0 0 0-1.254-.43l-1.582-.443a14.034 14.034 0 0 1-1.978-.717 5.47 5.47 0 0 1-1.394-.896 3.211 3.211 0 0 1-.827-1.17 4.126 4.126 0 0 1-.266-1.548c0-.824.163-1.554.489-2.188a4.783 4.783 0 0 1 1.325-1.602 5.86 5.86 0 0 1 1.94-.984 8.122 8.122 0 0 1 2.339-.331c.59 0 1.162.052 1.72.153a12.878 12.878 0 0 1 3.022.952c.451.206.854.413 1.21.619z" clip-path="url(#d)"/><path fill="#1d1d1b" d="M118.1 26.434c0-.941.179-1.879.535-2.816a7.665 7.665 0 0 1 1.559-2.507c.681-.738 1.514-1.334 2.5-1.791.983-.457 2.103-.686 3.36-.686 1.472 0 2.752.319 3.836.952 1.087.634 1.892 1.458 2.418 2.475l-2.93 1.942a3.243 3.243 0 0 0-.65-1.025 3.606 3.606 0 0 0-.86-.663 3.415 3.415 0 0 0-.965-.354 4.788 4.788 0 0 0-.941-.101 3.524 3.524 0 0 0-1.769.421 3.838 3.838 0 0 0-1.233 1.083 4.768 4.768 0 0 0-.732 1.502 6.053 6.053 0 0 0-.243 1.7c0 .621.096 1.217.29 1.792a5.05 5.05 0 0 0 .813 1.527c.348.44.772.79 1.267 1.048a3.529 3.529 0 0 0 1.653.386 4.04 4.04 0 0 0 1.93-.497c.31-.17.589-.39.836-.662s.45-.609.604-1.007l3.14 1.745a4.734 4.734 0 0 1-1.082 1.55 6.769 6.769 0 0 1-1.615 1.15 8.72 8.72 0 0 1-3.908.95c-1.147 0-2.198-.233-3.15-.7a7.966 7.966 0 0 1-2.465-1.843 8.648 8.648 0 0 1-1.617-2.609 7.912 7.912 0 0 1-.58-2.962" clip-path="url(#e)"/><path fill="#1d1d1b" d="M141.216 34.546c-1.179 0-2.248-.228-3.21-.685a8.002 8.002 0 0 1-4.08-4.353 7.979 7.979 0 0 1-.571-2.961 7.78 7.78 0 0 1 .593-2.985c.397-.956.946-1.8 1.651-2.53a8.022 8.022 0 0 1 2.513-1.745c.969-.436 2.026-.652 3.173-.652 1.179 0 2.249.227 3.21.684a7.987 7.987 0 0 1 4.07 4.377c.372.957.558 1.93.558 2.916a8.054 8.054 0 0 1-2.233 5.514 7.977 7.977 0 0 1-2.5 1.756 7.513 7.513 0 0 1-3.174.664m-3.977-7.955c0 .604.088 1.19.269 1.755a4.88 4.88 0 0 0 .765 1.515 3.74 3.74 0 0 0 1.257 1.061c.503.264 1.082.396 1.732.396.667 0 1.248-.138 1.745-.419.495-.279.91-.644 1.244-1.095.334-.449.581-.954.745-1.523a6.31 6.31 0 0 0 .243-1.734c0-.604-.088-1.192-.266-1.758a4.626 4.626 0 0 0-.78-1.502 3.618 3.618 0 0 0-2.954-1.426c-.667 0-1.248.136-1.745.409a3.88 3.88 0 0 0-1.244 1.072 4.761 4.761 0 0 0-.755 1.512 6.034 6.034 0 0 0-.256 1.737" clip-path="url(#f)"/><path fill="#1d1d1b" d="M151.356 34.414v-15.69h7.441c.773 0 1.492.154 2.152.463a5.663 5.663 0 0 1 2.836 2.918 4.85 4.85 0 0 1 .408 1.922c0 .485-.064.953-.186 1.403a5.393 5.393 0 0 1-.536 1.271 4.762 4.762 0 0 1-.847 1.073 5.084 5.084 0 0 1-1.13.808l3.791 5.832h-4.303l-3.323-5.06h-2.49v5.06zm3.813-8.22h3.487c.453 0 .839-.203 1.165-.61.325-.403.488-.924.488-1.557 0-.647-.185-1.163-.558-1.545-.373-.384-.775-.578-1.21-.578h-3.372zM178.773 31.232v3.182h-11.605v-15.69h11.395v3.182h-7.58v3.05h6.51v2.937h-6.51v3.339z"/><path fill="#656364" d="M209.248 113.793h-25.417v-65.79h25.417c9.437 0 17.086 7.27 17.086 16.238v33.314c0 8.969-7.65 16.238-17.086 16.238" clip-path="url(#g)"/><path fill="#868785" d="M98.725 113.791H56.172v-65.79h42.553z"/><path fill="#a7a7a6" d="M141.278 113.791H98.725v-65.79h42.553z"/><path fill="#868785" d="M183.833 113.791h-42.557v-65.79h42.555z"/><path fill="#656364" d="M30.757 113.793h25.417v-65.79H30.757c-9.437 0-17.086 7.27-17.086 16.238v33.314c0 8.969 7.65 16.238 17.086 16.238" clip-path="url(#h)"/><path fill="#ccc" d="M195.284 95.614V66.29h19.594v4.42H201.24v7.436h9.683v4.42h-9.68v8.629h13.82v4.42zM66.714 95.614V66.29h8.471c8.748 0 11.961 3.526 11.961 7.86 0 2.677-1.4 4.762-3.398 6.25 3.488 1.317 5.163 3.612 5.163 6.5 0 5.27-3.676 8.715-12.658 8.715zm5.958-16.789 2.743-.042c3.818-.042 5.632-1.699 5.632-4.124 0-2.633-1.907-3.95-6.61-3.95h-1.765zm2.93 4.08h-2.935v8.289h3.306c4.513 0 6.841-1.276 6.841-4.294 0-2.421-1.77-3.95-7.216-3.995"/><path fill="#ccc" d="M106.056 80.908c0-9.18 6.376-15.045 14.661-15.045 7.073 0 10.47 3.016 12.331 7.14L127.37 75c-1.162-2.677-3.582-4.25-6.888-4.25-5.025 0-8.283 3.996-8.283 10.114 0 6.548 3.165 10.286 8.843 10.286 3.35 0 5.865-1.573 7.679-4.377l4.467 3.102c-2.558 4.037-6.655 6.164-12.379 6.164-8.889 0-14.753-5.908-14.753-15.13" clip-path="url(#i)"/><path fill="#ccc" d="M151.045 95.614V66.29h9.355c10.843 0 17.08 5.481 17.08 14.661 0 8.415-6.702 14.664-17.734 14.664zm8.562-4.42c7.865 0 11.73-4.378 11.73-10.244 0-6.417-3.585-10.158-10.984-10.158h-3.352v20.402zM20.656 95.614l12.8-29.325h4.142l12.75 29.325h-6.56L41.6 90.002H28.894l-2.233 5.612zm10.006-10.032h9.217l-4.515-11.687z"/><path fill="#fff" fill-opacity=".5" d="M30.755 122.775c-14.634 0-26.538-11.314-26.538-25.22V32.444c0-13.907 11.904-25.22 26.538-25.22h178.493c14.634 0 26.537 11.313 26.537 25.22v65.111c0 13.906-11.903 25.22-26.537 25.22z" clip-path="url(#b)"/></svg>